<?xml version="1.0" encoding="UTF-8" standalone="no"?>
<svg
   xmlns:dc="http://purl.org/dc/elements/1.1/"
   xmlns:cc="http://creativecommons.org/ns#"
   xmlns:rdf="http://www.w3.org/1999/02/22-rdf-syntax-ns#"
   xmlns:svg="http://www.w3.org/2000/svg"
   xmlns="http://www.w3.org/2000/svg"
   xmlns:sodipodi="http://sodipodi.sourceforge.net/DTD/sodipodi-0.dtd"
   xmlns:inkscape="http://www.inkscape.org/namespaces/inkscape"
   version="1.1"
   viewBox="0 0 49.999999 49.999999"
   enable-background="new 0 0 129 129"
   id="svg6"
   sodipodi:docname="search.svg"
   width="50"
   height="50"
   inkscape:version="0.92.1 r15371">
  <metadata
     id="metadata12">
    <rdf:RDF>
      <cc:Work
         rdf:about="">
        <dc:format>image/svg+xml</dc:format>
        <dc:type
           rdf:resource="http://purl.org/dc/dcmitype/StillImage" />
      </cc:Work>
    </rdf:RDF>
  </metadata>
  <defs
     id="defs10" />
  <sodipodi:namedview
     pagecolor="#ffffff"
     bordercolor="#666666"
     borderopacity="1"
     objecttolerance="10"
     gridtolerance="10"
     guidetolerance="10"
     inkscape:pageopacity="0"
     inkscape:pageshadow="2"
     inkscape:window-width="1920"
     inkscape:window-height="1058"
     id="namedview8"
     showgrid="false"
     inkscape:zoom="1.8294574"
     inkscape:cx="58"
     inkscape:cy="57.899997"
     inkscape:window-x="-8"
     inkscape:window-y="-8"
     inkscape:window-maximized="1"
     inkscape:current-layer="svg6" />
  <g
     id="g4"
     transform="matrix(0.43140638,0,0,0.43140638,-2.8041415,-2.8041415)"
     style="fill:#d3d3d3;fill-opacity:1">
    <path
       d="m 51.6,96.7 c 11,0 21,-3.9 28.8,-10.5 l 35,35 c 0.8,0.8 1.8,1.2 2.9,1.2 1.1,0 2.1,-0.4 2.9,-1.2 1.6,-1.6 1.6,-4.2 0,-5.8 l -35,-35 C 92.7,72.6 96.7,62.5 96.7,51.6 96.7,26.7 76.5,6.5 51.6,6.5 26.8,6.5 6.5,26.8 6.5,51.6 c 0,24.9 20.3,45.1 45.1,45.1 z m 0,-82 C 72,14.7 88.5,31.3 88.5,51.6 88.5,72 72,88.5 51.6,88.5 31.2,88.5 14.7,71.9 14.7,51.6 14.7,31.3 31.3,14.7 51.6,14.7 Z"
       id="path2"
       inkscape:connector-curvature="0"
       style="fill:#d3d3d3;fill-opacity:1" />
  </g>
</svg>
